M48
;DRILL file {Pcbnew (2012-apr-16-27)-stable} date lun 31 mar 2014 00:38:19 ART
;FORMAT={-:-/ absolute / inch / decimal}
FMAT,2
INCH,TZ
T1C0.032
T2C0.040
T3C0.120
%
G90
G05
M72
T1
X2.850Y2.350
X2.850Y2.450
X2.850Y2.550
X2.850Y2.650
X2.850Y2.750
X2.850Y2.850
X2.850Y2.950
X2.850Y3.050
X2.850Y3.150
X3.150Y2.350
X3.150Y2.450
X3.150Y2.550
X3.150Y2.650
X3.150Y2.750
X3.150Y2.850
X3.150Y2.950
X3.150Y3.050
X3.150Y3.150
X3.350Y2.400
X3.350Y2.500
X3.350Y2.700
X3.350Y2.800
X3.550Y2.500
X3.550Y2.700
X3.750Y2.350
X3.750Y2.750
X3.750Y3.150
X4.050Y2.350
X4.050Y2.750
X4.050Y3.150
X4.250Y2.350
X4.250Y2.450
X4.250Y2.550
X4.250Y2.750
X4.250Y2.850
X4.250Y2.950
X4.250Y3.150
X4.250Y3.250
X4.250Y3.350
X4.550Y2.350
X4.550Y2.450
X4.550Y2.550
X4.550Y2.750
X4.550Y2.850
X4.550Y2.950
X4.550Y3.150
X4.550Y3.250
X4.550Y3.350
T2
X4.950Y2.000
X4.950Y2.100
X4.950Y2.200
X4.950Y2.750
X4.950Y2.850
X4.950Y2.950
X4.950Y3.500
X4.950Y3.600
X4.950Y3.700
T3
X5.400Y1.900
X5.400Y2.200
X5.400Y2.650
X5.400Y2.950
X5.400Y3.500
X5.400Y3.850
T0
M30
