G04 (created by PCBNEW-RS274X (2012-apr-16-27)-stable) date lun 31 mar 2014 00:38:12 ART*
G01*
G70*
G90*
%MOIN*%
G04 Gerber Fmt 3.4, Leading zero omitted, Abs format*
%FSLAX34Y34*%
G04 APERTURE LIST*
%ADD10C,0.006000*%
%ADD11C,0.070000*%
%ADD12R,0.070000X0.070000*%
%ADD13C,0.055000*%
%ADD14R,0.055000X0.055000*%
%ADD15C,0.160000*%
%ADD16C,0.008000*%
G04 APERTURE END LIST*
G54D10*
G54D11*
X49500Y-20000D03*
X49500Y-21000D03*
G54D12*
X49500Y-22000D03*
G54D11*
X49500Y-27500D03*
X49500Y-28500D03*
G54D12*
X49500Y-29500D03*
G54D11*
X49500Y-35000D03*
X49500Y-36000D03*
G54D12*
X49500Y-37000D03*
G54D13*
X37500Y-23500D03*
X40500Y-23500D03*
X37500Y-27500D03*
X40500Y-27500D03*
X37500Y-31500D03*
X40500Y-31500D03*
G54D14*
X42500Y-23500D03*
G54D13*
X42500Y-24500D03*
X42500Y-25500D03*
X45500Y-25500D03*
X45500Y-24500D03*
X45500Y-23500D03*
G54D14*
X42500Y-27500D03*
G54D13*
X42500Y-28500D03*
X42500Y-29500D03*
X45500Y-29500D03*
X45500Y-28500D03*
X45500Y-27500D03*
G54D14*
X42500Y-31500D03*
G54D13*
X42500Y-32500D03*
X42500Y-33500D03*
X45500Y-33500D03*
X45500Y-32500D03*
X45500Y-31500D03*
G54D14*
X28500Y-23500D03*
G54D13*
X28500Y-24500D03*
X28500Y-25500D03*
X28500Y-26500D03*
X28500Y-27500D03*
X28500Y-28500D03*
X28500Y-29500D03*
X28500Y-30500D03*
X28500Y-31500D03*
X31500Y-31500D03*
X31500Y-30500D03*
X31500Y-29500D03*
X31500Y-28500D03*
X31500Y-27500D03*
X31500Y-26500D03*
X31500Y-25500D03*
X31500Y-24500D03*
X31500Y-23500D03*
G54D15*
X54000Y-19000D03*
X54000Y-22000D03*
X54000Y-26500D03*
X54000Y-29500D03*
X54000Y-35000D03*
X54000Y-38500D03*
G54D11*
X35500Y-27000D03*
X35500Y-25000D03*
G54D13*
X33500Y-25000D03*
X33500Y-24000D03*
X33500Y-27000D03*
X33500Y-28000D03*
G54D16*
X35500Y-24000D02*
X36500Y-25000D01*
X39500Y-29000D02*
X40000Y-28500D01*
X36500Y-28000D02*
X37000Y-28500D01*
X36500Y-28000D02*
X33500Y-28000D01*
X36500Y-25000D02*
X36500Y-28000D01*
X33500Y-24000D02*
X35500Y-24000D01*
X37000Y-28500D02*
X37000Y-29000D01*
X37000Y-29500D02*
X37000Y-29000D01*
X33500Y-33000D02*
X37000Y-29500D01*
X30500Y-33000D02*
X33500Y-33000D01*
X30000Y-32500D02*
X30500Y-33000D01*
X30000Y-28000D02*
X30000Y-32500D01*
X29500Y-27500D02*
X30000Y-28000D01*
X28500Y-27500D02*
X29500Y-27500D01*
X40000Y-28500D02*
X42500Y-28500D01*
X39000Y-32500D02*
X39500Y-32000D01*
X39500Y-32000D02*
X39500Y-29000D01*
X39500Y-29000D02*
X39500Y-25000D01*
X39500Y-25000D02*
X40000Y-24500D01*
X40000Y-24500D02*
X42500Y-24500D01*
X37000Y-29500D02*
X37000Y-30500D01*
X39000Y-32500D02*
X42500Y-32500D01*
X37000Y-32500D02*
X39000Y-32500D01*
X36500Y-32000D02*
X37000Y-32500D01*
X36500Y-31000D02*
X36500Y-32000D01*
X37000Y-30500D02*
X36500Y-31000D01*
X37500Y-25500D02*
X35000Y-23000D01*
X35000Y-23000D02*
X33000Y-23000D01*
X33000Y-23000D02*
X32500Y-23500D01*
X32500Y-23500D02*
X32500Y-24000D01*
X32500Y-24000D02*
X32000Y-24500D01*
X32000Y-24500D02*
X31500Y-24500D01*
X37500Y-27500D02*
X37500Y-25500D01*
X40500Y-31500D02*
X42500Y-31500D01*
X45500Y-31500D02*
X49000Y-31500D01*
X49500Y-32000D02*
X49500Y-35000D01*
X49000Y-31500D02*
X49500Y-32000D01*
X49500Y-35000D02*
X54000Y-35000D01*
X40500Y-27500D02*
X42500Y-27500D01*
X40500Y-23500D02*
X42500Y-23500D01*
X47500Y-20000D02*
X49500Y-20000D01*
X46500Y-21000D02*
X47500Y-20000D01*
X46500Y-22500D02*
X46500Y-21000D01*
X45500Y-23500D02*
X46500Y-22500D01*
X51000Y-20000D02*
X52000Y-19000D01*
X49500Y-20000D02*
X51000Y-20000D01*
X52000Y-19000D02*
X54000Y-19000D01*
X49500Y-27500D02*
X51000Y-27500D01*
X51000Y-27500D02*
X52000Y-26500D01*
X52000Y-26500D02*
X54000Y-26500D01*
X45500Y-27500D02*
X49500Y-27500D01*
X31500Y-23500D02*
X32500Y-22500D01*
X32500Y-22500D02*
X36000Y-22500D01*
X36000Y-22500D02*
X37000Y-23500D01*
X37000Y-23500D02*
X37500Y-23500D01*
X49500Y-22000D02*
X54000Y-22000D01*
X45500Y-33500D02*
X46500Y-33500D01*
X46500Y-33500D02*
X49000Y-36000D01*
X49000Y-36000D02*
X49500Y-36000D01*
X49500Y-37000D02*
X51000Y-37000D01*
X51000Y-37000D02*
X52500Y-38500D01*
X52500Y-38500D02*
X54000Y-38500D01*
X45500Y-29500D02*
X47000Y-29500D01*
X47000Y-29500D02*
X48000Y-28500D01*
X48000Y-28500D02*
X49500Y-28500D01*
X49500Y-29500D02*
X54000Y-29500D01*
X47000Y-25500D02*
X48000Y-24500D01*
X48000Y-24500D02*
X48000Y-21500D01*
X48000Y-21500D02*
X48500Y-21000D01*
X48500Y-21000D02*
X49500Y-21000D01*
X45500Y-25500D02*
X47000Y-25500D01*
X31000Y-22000D02*
X30000Y-23000D01*
X29500Y-25500D02*
X28500Y-25500D01*
X30000Y-25000D02*
X29500Y-25500D01*
X30000Y-23000D02*
X30000Y-25000D01*
X37500Y-22000D02*
X31000Y-22000D01*
X38500Y-23000D02*
X37500Y-22000D01*
X38500Y-29500D02*
X38500Y-23000D01*
X37500Y-30500D02*
X38500Y-29500D01*
X37500Y-31500D02*
X37500Y-30500D01*
X31500Y-25500D02*
X32000Y-25500D01*
X32000Y-25500D02*
X32500Y-25000D01*
X32500Y-25000D02*
X35500Y-25000D01*
X35500Y-27000D02*
X33500Y-27000D01*
X33500Y-27000D02*
X32500Y-27000D01*
X32500Y-27000D02*
X32000Y-26500D01*
X32000Y-26500D02*
X31500Y-26500D01*
M02*
