G04 (created by PCBNEW-RS274X (2012-apr-16-27)-stable) date lun 31 mar 2014 00:38:12 ART*
G01*
G70*
G90*
%MOIN*%
G04 Gerber Fmt 3.4, Leading zero omitted, Abs format*
%FSLAX34Y34*%
G04 APERTURE LIST*
%ADD10C,0.006000*%
%ADD11C,0.070000*%
%ADD12R,0.070000X0.070000*%
%ADD13C,0.055000*%
%ADD14R,0.055000X0.055000*%
%ADD15C,0.160000*%
G04 APERTURE END LIST*
G54D10*
G54D11*
X49500Y-20000D03*
X49500Y-21000D03*
G54D12*
X49500Y-22000D03*
G54D11*
X49500Y-27500D03*
X49500Y-28500D03*
G54D12*
X49500Y-29500D03*
G54D11*
X49500Y-35000D03*
X49500Y-36000D03*
G54D12*
X49500Y-37000D03*
G54D13*
X37500Y-23500D03*
X40500Y-23500D03*
X37500Y-27500D03*
X40500Y-27500D03*
X37500Y-31500D03*
X40500Y-31500D03*
G54D14*
X42500Y-23500D03*
G54D13*
X42500Y-24500D03*
X42500Y-25500D03*
X45500Y-25500D03*
X45500Y-24500D03*
X45500Y-23500D03*
G54D14*
X42500Y-27500D03*
G54D13*
X42500Y-28500D03*
X42500Y-29500D03*
X45500Y-29500D03*
X45500Y-28500D03*
X45500Y-27500D03*
G54D14*
X42500Y-31500D03*
G54D13*
X42500Y-32500D03*
X42500Y-33500D03*
X45500Y-33500D03*
X45500Y-32500D03*
X45500Y-31500D03*
G54D14*
X28500Y-23500D03*
G54D13*
X28500Y-24500D03*
X28500Y-25500D03*
X28500Y-26500D03*
X28500Y-27500D03*
X28500Y-28500D03*
X28500Y-29500D03*
X28500Y-30500D03*
X28500Y-31500D03*
X31500Y-31500D03*
X31500Y-30500D03*
X31500Y-29500D03*
X31500Y-28500D03*
X31500Y-27500D03*
X31500Y-26500D03*
X31500Y-25500D03*
X31500Y-24500D03*
X31500Y-23500D03*
G54D15*
X54000Y-19000D03*
X54000Y-22000D03*
X54000Y-26500D03*
X54000Y-29500D03*
X54000Y-35000D03*
X54000Y-38500D03*
G54D11*
X35500Y-27000D03*
X35500Y-25000D03*
G54D13*
X33500Y-25000D03*
X33500Y-24000D03*
X33500Y-27000D03*
X33500Y-28000D03*
M02*
