G04 (created by PCBNEW-RS274X (2012-apr-16-27)-stable) date lun 31 mar 2014 00:38:12 ART*
G01*
G70*
G90*
%MOIN*%
G04 Gerber Fmt 3.4, Leading zero omitted, Abs format*
%FSLAX34Y34*%
G04 APERTURE LIST*
%ADD10C,0.006000*%
%ADD11C,0.015000*%
%ADD12C,0.008000*%
%ADD13C,0.012000*%
%ADD14C,0.011300*%
%ADD15C,0.010000*%
G04 APERTURE END LIST*
G54D10*
G54D11*
X50250Y-19000D02*
X50500Y-19000D01*
X50500Y-19000D02*
X50500Y-23000D01*
X50500Y-23000D02*
X50250Y-23000D01*
X48750Y-19000D02*
X50250Y-19000D01*
X50250Y-19000D02*
X50250Y-23000D01*
X50250Y-23000D02*
X48750Y-23000D01*
X48750Y-23000D02*
X48750Y-19000D01*
X50250Y-26500D02*
X50500Y-26500D01*
X50500Y-26500D02*
X50500Y-30500D01*
X50500Y-30500D02*
X50250Y-30500D01*
X48750Y-26500D02*
X50250Y-26500D01*
X50250Y-26500D02*
X50250Y-30500D01*
X50250Y-30500D02*
X48750Y-30500D01*
X48750Y-30500D02*
X48750Y-26500D01*
X50250Y-34000D02*
X50500Y-34000D01*
X50500Y-34000D02*
X50500Y-38000D01*
X50500Y-38000D02*
X50250Y-38000D01*
X48750Y-34000D02*
X50250Y-34000D01*
X50250Y-34000D02*
X50250Y-38000D01*
X50250Y-38000D02*
X48750Y-38000D01*
X48750Y-38000D02*
X48750Y-34000D01*
G54D12*
X37500Y-23500D02*
X37700Y-23500D01*
X40500Y-23500D02*
X40300Y-23500D01*
X40300Y-23500D02*
X40300Y-23100D01*
X40300Y-23100D02*
X37700Y-23100D01*
X37700Y-23100D02*
X37700Y-23900D01*
X37700Y-23900D02*
X40300Y-23900D01*
X40300Y-23900D02*
X40300Y-23500D01*
X37700Y-23300D02*
X37900Y-23100D01*
X37500Y-27500D02*
X37700Y-27500D01*
X40500Y-27500D02*
X40300Y-27500D01*
X40300Y-27500D02*
X40300Y-27100D01*
X40300Y-27100D02*
X37700Y-27100D01*
X37700Y-27100D02*
X37700Y-27900D01*
X37700Y-27900D02*
X40300Y-27900D01*
X40300Y-27900D02*
X40300Y-27500D01*
X37700Y-27300D02*
X37900Y-27100D01*
X37500Y-31500D02*
X37700Y-31500D01*
X40500Y-31500D02*
X40300Y-31500D01*
X40300Y-31500D02*
X40300Y-31100D01*
X40300Y-31100D02*
X37700Y-31100D01*
X37700Y-31100D02*
X37700Y-31900D01*
X37700Y-31900D02*
X40300Y-31900D01*
X40300Y-31900D02*
X40300Y-31500D01*
X37700Y-31300D02*
X37900Y-31100D01*
G54D11*
X45000Y-22750D02*
X45000Y-26250D01*
X45000Y-26250D02*
X43000Y-26250D01*
X43000Y-26250D02*
X43000Y-22750D01*
X43000Y-22750D02*
X45000Y-22750D01*
X44250Y-22750D02*
X44250Y-23250D01*
X44250Y-23250D02*
X43750Y-23250D01*
X43750Y-23250D02*
X43750Y-22750D01*
X45000Y-26750D02*
X45000Y-30250D01*
X45000Y-30250D02*
X43000Y-30250D01*
X43000Y-30250D02*
X43000Y-26750D01*
X43000Y-26750D02*
X45000Y-26750D01*
X44250Y-26750D02*
X44250Y-27250D01*
X44250Y-27250D02*
X43750Y-27250D01*
X43750Y-27250D02*
X43750Y-26750D01*
X45000Y-30750D02*
X45000Y-34250D01*
X45000Y-34250D02*
X43000Y-34250D01*
X43000Y-34250D02*
X43000Y-30750D01*
X43000Y-30750D02*
X45000Y-30750D01*
X44250Y-30750D02*
X44250Y-31250D01*
X44250Y-31250D02*
X43750Y-31250D01*
X43750Y-31250D02*
X43750Y-30750D01*
X30500Y-22500D02*
X30500Y-23000D01*
X30500Y-23000D02*
X29500Y-23000D01*
X29500Y-23000D02*
X29500Y-22500D01*
X31000Y-22500D02*
X31000Y-32500D01*
X31000Y-32500D02*
X29000Y-32500D01*
X29000Y-32500D02*
X29000Y-22500D01*
X29000Y-22500D02*
X31000Y-22500D01*
X54900Y-19000D02*
X54882Y-19174D01*
X54832Y-19342D01*
X54749Y-19498D01*
X54638Y-19634D01*
X54503Y-19746D01*
X54348Y-19829D01*
X54180Y-19881D01*
X54006Y-19899D01*
X53832Y-19884D01*
X53663Y-19834D01*
X53508Y-19753D01*
X53371Y-19643D01*
X53258Y-19508D01*
X53173Y-19354D01*
X53120Y-19187D01*
X53101Y-19012D01*
X53115Y-18838D01*
X53164Y-18669D01*
X53244Y-18513D01*
X53353Y-18375D01*
X53487Y-18261D01*
X53640Y-18176D01*
X53807Y-18121D01*
X53982Y-18101D01*
X54156Y-18114D01*
X54325Y-18161D01*
X54482Y-18241D01*
X54620Y-18349D01*
X54735Y-18482D01*
X54822Y-18634D01*
X54877Y-18801D01*
X54899Y-18975D01*
X54900Y-19000D01*
X54900Y-22000D02*
X54882Y-22174D01*
X54832Y-22342D01*
X54749Y-22498D01*
X54638Y-22634D01*
X54503Y-22746D01*
X54348Y-22829D01*
X54180Y-22881D01*
X54006Y-22899D01*
X53832Y-22884D01*
X53663Y-22834D01*
X53508Y-22753D01*
X53371Y-22643D01*
X53258Y-22508D01*
X53173Y-22354D01*
X53120Y-22187D01*
X53101Y-22012D01*
X53115Y-21838D01*
X53164Y-21669D01*
X53244Y-21513D01*
X53353Y-21375D01*
X53487Y-21261D01*
X53640Y-21176D01*
X53807Y-21121D01*
X53982Y-21101D01*
X54156Y-21114D01*
X54325Y-21161D01*
X54482Y-21241D01*
X54620Y-21349D01*
X54735Y-21482D01*
X54822Y-21634D01*
X54877Y-21801D01*
X54899Y-21975D01*
X54900Y-22000D01*
X54900Y-26500D02*
X54882Y-26674D01*
X54832Y-26842D01*
X54749Y-26998D01*
X54638Y-27134D01*
X54503Y-27246D01*
X54348Y-27329D01*
X54180Y-27381D01*
X54006Y-27399D01*
X53832Y-27384D01*
X53663Y-27334D01*
X53508Y-27253D01*
X53371Y-27143D01*
X53258Y-27008D01*
X53173Y-26854D01*
X53120Y-26687D01*
X53101Y-26512D01*
X53115Y-26338D01*
X53164Y-26169D01*
X53244Y-26013D01*
X53353Y-25875D01*
X53487Y-25761D01*
X53640Y-25676D01*
X53807Y-25621D01*
X53982Y-25601D01*
X54156Y-25614D01*
X54325Y-25661D01*
X54482Y-25741D01*
X54620Y-25849D01*
X54735Y-25982D01*
X54822Y-26134D01*
X54877Y-26301D01*
X54899Y-26475D01*
X54900Y-26500D01*
X54900Y-29500D02*
X54882Y-29674D01*
X54832Y-29842D01*
X54749Y-29998D01*
X54638Y-30134D01*
X54503Y-30246D01*
X54348Y-30329D01*
X54180Y-30381D01*
X54006Y-30399D01*
X53832Y-30384D01*
X53663Y-30334D01*
X53508Y-30253D01*
X53371Y-30143D01*
X53258Y-30008D01*
X53173Y-29854D01*
X53120Y-29687D01*
X53101Y-29512D01*
X53115Y-29338D01*
X53164Y-29169D01*
X53244Y-29013D01*
X53353Y-28875D01*
X53487Y-28761D01*
X53640Y-28676D01*
X53807Y-28621D01*
X53982Y-28601D01*
X54156Y-28614D01*
X54325Y-28661D01*
X54482Y-28741D01*
X54620Y-28849D01*
X54735Y-28982D01*
X54822Y-29134D01*
X54877Y-29301D01*
X54899Y-29475D01*
X54900Y-29500D01*
X54900Y-35000D02*
X54882Y-35174D01*
X54832Y-35342D01*
X54749Y-35498D01*
X54638Y-35634D01*
X54503Y-35746D01*
X54348Y-35829D01*
X54180Y-35881D01*
X54006Y-35899D01*
X53832Y-35884D01*
X53663Y-35834D01*
X53508Y-35753D01*
X53371Y-35643D01*
X53258Y-35508D01*
X53173Y-35354D01*
X53120Y-35187D01*
X53101Y-35012D01*
X53115Y-34838D01*
X53164Y-34669D01*
X53244Y-34513D01*
X53353Y-34375D01*
X53487Y-34261D01*
X53640Y-34176D01*
X53807Y-34121D01*
X53982Y-34101D01*
X54156Y-34114D01*
X54325Y-34161D01*
X54482Y-34241D01*
X54620Y-34349D01*
X54735Y-34482D01*
X54822Y-34634D01*
X54877Y-34801D01*
X54899Y-34975D01*
X54900Y-35000D01*
X54900Y-38500D02*
X54882Y-38674D01*
X54832Y-38842D01*
X54749Y-38998D01*
X54638Y-39134D01*
X54503Y-39246D01*
X54348Y-39329D01*
X54180Y-39381D01*
X54006Y-39399D01*
X53832Y-39384D01*
X53663Y-39334D01*
X53508Y-39253D01*
X53371Y-39143D01*
X53258Y-39008D01*
X53173Y-38854D01*
X53120Y-38687D01*
X53101Y-38512D01*
X53115Y-38338D01*
X53164Y-38169D01*
X53244Y-38013D01*
X53353Y-37875D01*
X53487Y-37761D01*
X53640Y-37676D01*
X53807Y-37621D01*
X53982Y-37601D01*
X54156Y-37614D01*
X54325Y-37661D01*
X54482Y-37741D01*
X54620Y-37849D01*
X54735Y-37982D01*
X54822Y-38134D01*
X54877Y-38301D01*
X54899Y-38475D01*
X54900Y-38500D01*
G54D10*
X35000Y-28750D02*
X34500Y-28250D01*
X34500Y-23750D02*
X35000Y-23250D01*
X36000Y-23250D02*
X36500Y-23750D01*
X36000Y-28750D02*
X36500Y-28250D01*
X34500Y-28250D02*
X34500Y-23750D01*
X35000Y-28750D02*
X36000Y-28750D01*
X36500Y-28250D02*
X36500Y-23750D01*
X36000Y-23250D02*
X35000Y-23250D01*
G54D13*
X33000Y-25480D02*
X33000Y-23500D01*
X33000Y-23500D02*
X34000Y-23500D01*
X34000Y-23500D02*
X34000Y-25500D01*
X34000Y-25500D02*
X33000Y-25500D01*
X33250Y-25500D02*
X33000Y-25250D01*
X34000Y-26520D02*
X34000Y-28500D01*
X34000Y-28500D02*
X33000Y-28500D01*
X33000Y-28500D02*
X33000Y-26500D01*
X33000Y-26500D02*
X34000Y-26500D01*
X33750Y-26500D02*
X34000Y-26750D01*
G54D12*
X47893Y-21305D02*
X48379Y-21305D01*
X48436Y-21286D01*
X48464Y-21267D01*
X48493Y-21229D01*
X48493Y-21152D01*
X48464Y-21114D01*
X48436Y-21095D01*
X48379Y-21076D01*
X47893Y-21076D01*
X47893Y-20695D02*
X47893Y-20886D01*
X48179Y-20905D01*
X48150Y-20886D01*
X48121Y-20848D01*
X48121Y-20752D01*
X48150Y-20714D01*
X48179Y-20695D01*
X48236Y-20676D01*
X48379Y-20676D01*
X48436Y-20695D01*
X48464Y-20714D01*
X48493Y-20752D01*
X48493Y-20848D01*
X48464Y-20886D01*
X48436Y-20905D01*
X48969Y-18143D02*
X49198Y-18143D01*
X49083Y-18743D02*
X49083Y-18143D01*
X49560Y-18743D02*
X49426Y-18457D01*
X49331Y-18743D02*
X49331Y-18143D01*
X49484Y-18143D01*
X49522Y-18171D01*
X49541Y-18200D01*
X49560Y-18257D01*
X49560Y-18343D01*
X49541Y-18400D01*
X49522Y-18429D01*
X49484Y-18457D01*
X49331Y-18457D01*
X49731Y-18743D02*
X49731Y-18143D01*
X49902Y-18571D02*
X50093Y-18571D01*
X49864Y-18743D02*
X49997Y-18143D01*
X50131Y-18743D01*
X50493Y-18686D02*
X50474Y-18714D01*
X50417Y-18743D01*
X50379Y-18743D01*
X50321Y-18714D01*
X50283Y-18657D01*
X50264Y-18600D01*
X50245Y-18486D01*
X50245Y-18400D01*
X50264Y-18286D01*
X50283Y-18229D01*
X50321Y-18171D01*
X50379Y-18143D01*
X50417Y-18143D01*
X50474Y-18171D01*
X50493Y-18200D01*
X47893Y-28805D02*
X48379Y-28805D01*
X48436Y-28786D01*
X48464Y-28767D01*
X48493Y-28729D01*
X48493Y-28652D01*
X48464Y-28614D01*
X48436Y-28595D01*
X48379Y-28576D01*
X47893Y-28576D01*
X47893Y-28214D02*
X47893Y-28291D01*
X47921Y-28329D01*
X47950Y-28348D01*
X48036Y-28386D01*
X48150Y-28405D01*
X48379Y-28405D01*
X48436Y-28386D01*
X48464Y-28367D01*
X48493Y-28329D01*
X48493Y-28252D01*
X48464Y-28214D01*
X48436Y-28195D01*
X48379Y-28176D01*
X48236Y-28176D01*
X48179Y-28195D01*
X48150Y-28214D01*
X48121Y-28252D01*
X48121Y-28329D01*
X48150Y-28367D01*
X48179Y-28386D01*
X48236Y-28405D01*
X48969Y-25643D02*
X49198Y-25643D01*
X49083Y-26243D02*
X49083Y-25643D01*
X49560Y-26243D02*
X49426Y-25957D01*
X49331Y-26243D02*
X49331Y-25643D01*
X49484Y-25643D01*
X49522Y-25671D01*
X49541Y-25700D01*
X49560Y-25757D01*
X49560Y-25843D01*
X49541Y-25900D01*
X49522Y-25929D01*
X49484Y-25957D01*
X49331Y-25957D01*
X49731Y-26243D02*
X49731Y-25643D01*
X49902Y-26071D02*
X50093Y-26071D01*
X49864Y-26243D02*
X49997Y-25643D01*
X50131Y-26243D01*
X50493Y-26186D02*
X50474Y-26214D01*
X50417Y-26243D01*
X50379Y-26243D01*
X50321Y-26214D01*
X50283Y-26157D01*
X50264Y-26100D01*
X50245Y-25986D01*
X50245Y-25900D01*
X50264Y-25786D01*
X50283Y-25729D01*
X50321Y-25671D01*
X50379Y-25643D01*
X50417Y-25643D01*
X50474Y-25671D01*
X50493Y-25700D01*
X47893Y-36305D02*
X48379Y-36305D01*
X48436Y-36286D01*
X48464Y-36267D01*
X48493Y-36229D01*
X48493Y-36152D01*
X48464Y-36114D01*
X48436Y-36095D01*
X48379Y-36076D01*
X47893Y-36076D01*
X47893Y-35924D02*
X47893Y-35657D01*
X48493Y-35829D01*
X48969Y-33143D02*
X49198Y-33143D01*
X49083Y-33743D02*
X49083Y-33143D01*
X49560Y-33743D02*
X49426Y-33457D01*
X49331Y-33743D02*
X49331Y-33143D01*
X49484Y-33143D01*
X49522Y-33171D01*
X49541Y-33200D01*
X49560Y-33257D01*
X49560Y-33343D01*
X49541Y-33400D01*
X49522Y-33429D01*
X49484Y-33457D01*
X49331Y-33457D01*
X49731Y-33743D02*
X49731Y-33143D01*
X49902Y-33571D02*
X50093Y-33571D01*
X49864Y-33743D02*
X49997Y-33143D01*
X50131Y-33743D01*
X50493Y-33686D02*
X50474Y-33714D01*
X50417Y-33743D01*
X50379Y-33743D01*
X50321Y-33714D01*
X50283Y-33657D01*
X50264Y-33600D01*
X50245Y-33486D01*
X50245Y-33400D01*
X50264Y-33286D01*
X50283Y-33229D01*
X50321Y-33171D01*
X50379Y-33143D01*
X50417Y-33143D01*
X50474Y-33171D01*
X50493Y-33200D01*
X39155Y-23773D02*
X38988Y-23511D01*
X38869Y-23773D02*
X38869Y-23223D01*
X39060Y-23223D01*
X39107Y-23249D01*
X39131Y-23275D01*
X39155Y-23327D01*
X39155Y-23406D01*
X39131Y-23458D01*
X39107Y-23485D01*
X39060Y-23511D01*
X38869Y-23511D01*
X39155Y-27773D02*
X38988Y-27511D01*
X38869Y-27773D02*
X38869Y-27223D01*
X39060Y-27223D01*
X39107Y-27249D01*
X39131Y-27275D01*
X39155Y-27327D01*
X39155Y-27406D01*
X39131Y-27458D01*
X39107Y-27485D01*
X39060Y-27511D01*
X38869Y-27511D01*
X39155Y-31773D02*
X38988Y-31511D01*
X38869Y-31773D02*
X38869Y-31223D01*
X39060Y-31223D01*
X39107Y-31249D01*
X39131Y-31275D01*
X39155Y-31327D01*
X39155Y-31406D01*
X39131Y-31458D01*
X39107Y-31485D01*
X39060Y-31511D01*
X38869Y-31511D01*
X43695Y-21554D02*
X43695Y-22161D01*
X43714Y-22232D01*
X43733Y-22268D01*
X43771Y-22304D01*
X43848Y-22304D01*
X43886Y-22268D01*
X43905Y-22232D01*
X43924Y-22161D01*
X43924Y-21554D01*
X44095Y-21625D02*
X44114Y-21589D01*
X44152Y-21554D01*
X44248Y-21554D01*
X44286Y-21589D01*
X44305Y-21625D01*
X44324Y-21696D01*
X44324Y-21768D01*
X44305Y-21875D01*
X44076Y-22304D01*
X44324Y-22304D01*
X43643Y-25959D02*
X43643Y-25892D01*
X43671Y-25859D01*
X43729Y-25826D01*
X43843Y-25809D01*
X44043Y-25809D01*
X44157Y-25826D01*
X44214Y-25859D01*
X44243Y-25892D01*
X44243Y-25959D01*
X44214Y-25992D01*
X44157Y-26026D01*
X44043Y-26042D01*
X43843Y-26042D01*
X43729Y-26026D01*
X43671Y-25992D01*
X43643Y-25959D01*
X44243Y-25659D02*
X43643Y-25659D01*
X43643Y-25525D01*
X43671Y-25492D01*
X43700Y-25475D01*
X43757Y-25459D01*
X43843Y-25459D01*
X43900Y-25475D01*
X43929Y-25492D01*
X43957Y-25525D01*
X43957Y-25659D01*
X43643Y-25359D02*
X43643Y-25159D01*
X44243Y-25259D02*
X43643Y-25259D01*
X43643Y-24975D02*
X43643Y-24908D01*
X43671Y-24875D01*
X43729Y-24842D01*
X43843Y-24825D01*
X44043Y-24825D01*
X44157Y-24842D01*
X44214Y-24875D01*
X44243Y-24908D01*
X44243Y-24975D01*
X44214Y-25008D01*
X44157Y-25042D01*
X44043Y-25058D01*
X43843Y-25058D01*
X43729Y-25042D01*
X43671Y-25008D01*
X43643Y-24975D01*
X44014Y-24675D02*
X44014Y-24408D01*
X43643Y-24292D02*
X43643Y-24092D01*
X44243Y-24192D02*
X43643Y-24192D01*
X44243Y-23775D02*
X43957Y-23891D01*
X44243Y-23975D02*
X43643Y-23975D01*
X43643Y-23841D01*
X43671Y-23808D01*
X43700Y-23791D01*
X43757Y-23775D01*
X43843Y-23775D01*
X43900Y-23791D01*
X43929Y-23808D01*
X43957Y-23841D01*
X43957Y-23975D01*
X44243Y-23625D02*
X43643Y-23625D01*
X44071Y-23474D02*
X44071Y-23308D01*
X44243Y-23508D02*
X43643Y-23391D01*
X44243Y-23274D01*
X44186Y-22958D02*
X44214Y-22974D01*
X44243Y-23024D01*
X44243Y-23058D01*
X44214Y-23108D01*
X44157Y-23141D01*
X44100Y-23158D01*
X43986Y-23174D01*
X43900Y-23174D01*
X43786Y-23158D01*
X43729Y-23141D01*
X43671Y-23108D01*
X43643Y-23058D01*
X43643Y-23024D01*
X43671Y-22974D01*
X43700Y-22958D01*
X43695Y-25554D02*
X43695Y-26161D01*
X43714Y-26232D01*
X43733Y-26268D01*
X43771Y-26304D01*
X43848Y-26304D01*
X43886Y-26268D01*
X43905Y-26232D01*
X43924Y-26161D01*
X43924Y-25554D01*
X44076Y-25554D02*
X44324Y-25554D01*
X44190Y-25839D01*
X44248Y-25839D01*
X44286Y-25875D01*
X44305Y-25911D01*
X44324Y-25982D01*
X44324Y-26161D01*
X44305Y-26232D01*
X44286Y-26268D01*
X44248Y-26304D01*
X44133Y-26304D01*
X44095Y-26268D01*
X44076Y-26232D01*
X43643Y-29959D02*
X43643Y-29892D01*
X43671Y-29859D01*
X43729Y-29826D01*
X43843Y-29809D01*
X44043Y-29809D01*
X44157Y-29826D01*
X44214Y-29859D01*
X44243Y-29892D01*
X44243Y-29959D01*
X44214Y-29992D01*
X44157Y-30026D01*
X44043Y-30042D01*
X43843Y-30042D01*
X43729Y-30026D01*
X43671Y-29992D01*
X43643Y-29959D01*
X44243Y-29659D02*
X43643Y-29659D01*
X43643Y-29525D01*
X43671Y-29492D01*
X43700Y-29475D01*
X43757Y-29459D01*
X43843Y-29459D01*
X43900Y-29475D01*
X43929Y-29492D01*
X43957Y-29525D01*
X43957Y-29659D01*
X43643Y-29359D02*
X43643Y-29159D01*
X44243Y-29259D02*
X43643Y-29259D01*
X43643Y-28975D02*
X43643Y-28908D01*
X43671Y-28875D01*
X43729Y-28842D01*
X43843Y-28825D01*
X44043Y-28825D01*
X44157Y-28842D01*
X44214Y-28875D01*
X44243Y-28908D01*
X44243Y-28975D01*
X44214Y-29008D01*
X44157Y-29042D01*
X44043Y-29058D01*
X43843Y-29058D01*
X43729Y-29042D01*
X43671Y-29008D01*
X43643Y-28975D01*
X44014Y-28675D02*
X44014Y-28408D01*
X43643Y-28292D02*
X43643Y-28092D01*
X44243Y-28192D02*
X43643Y-28192D01*
X44243Y-27775D02*
X43957Y-27891D01*
X44243Y-27975D02*
X43643Y-27975D01*
X43643Y-27841D01*
X43671Y-27808D01*
X43700Y-27791D01*
X43757Y-27775D01*
X43843Y-27775D01*
X43900Y-27791D01*
X43929Y-27808D01*
X43957Y-27841D01*
X43957Y-27975D01*
X44243Y-27625D02*
X43643Y-27625D01*
X44071Y-27474D02*
X44071Y-27308D01*
X44243Y-27508D02*
X43643Y-27391D01*
X44243Y-27274D01*
X44186Y-26958D02*
X44214Y-26974D01*
X44243Y-27024D01*
X44243Y-27058D01*
X44214Y-27108D01*
X44157Y-27141D01*
X44100Y-27158D01*
X43986Y-27174D01*
X43900Y-27174D01*
X43786Y-27158D01*
X43729Y-27141D01*
X43671Y-27108D01*
X43643Y-27058D01*
X43643Y-27024D01*
X43671Y-26974D01*
X43700Y-26958D01*
X43695Y-29554D02*
X43695Y-30161D01*
X43714Y-30232D01*
X43733Y-30268D01*
X43771Y-30304D01*
X43848Y-30304D01*
X43886Y-30268D01*
X43905Y-30232D01*
X43924Y-30161D01*
X43924Y-29554D01*
X44286Y-29804D02*
X44286Y-30304D01*
X44190Y-29518D02*
X44095Y-30054D01*
X44343Y-30054D01*
X43643Y-33959D02*
X43643Y-33892D01*
X43671Y-33859D01*
X43729Y-33826D01*
X43843Y-33809D01*
X44043Y-33809D01*
X44157Y-33826D01*
X44214Y-33859D01*
X44243Y-33892D01*
X44243Y-33959D01*
X44214Y-33992D01*
X44157Y-34026D01*
X44043Y-34042D01*
X43843Y-34042D01*
X43729Y-34026D01*
X43671Y-33992D01*
X43643Y-33959D01*
X44243Y-33659D02*
X43643Y-33659D01*
X43643Y-33525D01*
X43671Y-33492D01*
X43700Y-33475D01*
X43757Y-33459D01*
X43843Y-33459D01*
X43900Y-33475D01*
X43929Y-33492D01*
X43957Y-33525D01*
X43957Y-33659D01*
X43643Y-33359D02*
X43643Y-33159D01*
X44243Y-33259D02*
X43643Y-33259D01*
X43643Y-32975D02*
X43643Y-32908D01*
X43671Y-32875D01*
X43729Y-32842D01*
X43843Y-32825D01*
X44043Y-32825D01*
X44157Y-32842D01*
X44214Y-32875D01*
X44243Y-32908D01*
X44243Y-32975D01*
X44214Y-33008D01*
X44157Y-33042D01*
X44043Y-33058D01*
X43843Y-33058D01*
X43729Y-33042D01*
X43671Y-33008D01*
X43643Y-32975D01*
X44014Y-32675D02*
X44014Y-32408D01*
X43643Y-32292D02*
X43643Y-32092D01*
X44243Y-32192D02*
X43643Y-32192D01*
X44243Y-31775D02*
X43957Y-31891D01*
X44243Y-31975D02*
X43643Y-31975D01*
X43643Y-31841D01*
X43671Y-31808D01*
X43700Y-31791D01*
X43757Y-31775D01*
X43843Y-31775D01*
X43900Y-31791D01*
X43929Y-31808D01*
X43957Y-31841D01*
X43957Y-31975D01*
X44243Y-31625D02*
X43643Y-31625D01*
X44071Y-31474D02*
X44071Y-31308D01*
X44243Y-31508D02*
X43643Y-31391D01*
X44243Y-31274D01*
X44186Y-30958D02*
X44214Y-30974D01*
X44243Y-31024D01*
X44243Y-31058D01*
X44214Y-31108D01*
X44157Y-31141D01*
X44100Y-31158D01*
X43986Y-31174D01*
X43900Y-31174D01*
X43786Y-31158D01*
X43729Y-31141D01*
X43671Y-31108D01*
X43643Y-31058D01*
X43643Y-31024D01*
X43671Y-30974D01*
X43700Y-30958D01*
G54D14*
X30083Y-24843D02*
X30650Y-24843D01*
X30717Y-24821D01*
X30750Y-24800D01*
X30783Y-24757D01*
X30783Y-24671D01*
X30750Y-24629D01*
X30717Y-24607D01*
X30650Y-24586D01*
X30083Y-24586D01*
X30783Y-24136D02*
X30783Y-24393D01*
X30783Y-24265D02*
X30083Y-24265D01*
X30183Y-24308D01*
X30250Y-24350D01*
X30283Y-24393D01*
X29783Y-31215D02*
X29083Y-31215D01*
X29083Y-31043D01*
X29117Y-31001D01*
X29150Y-30979D01*
X29217Y-30958D01*
X29317Y-30958D01*
X29383Y-30979D01*
X29417Y-31001D01*
X29450Y-31043D01*
X29450Y-31215D01*
X29783Y-30765D02*
X29083Y-30765D01*
X29717Y-30294D02*
X29750Y-30315D01*
X29783Y-30379D01*
X29783Y-30422D01*
X29750Y-30487D01*
X29683Y-30529D01*
X29617Y-30551D01*
X29483Y-30572D01*
X29383Y-30572D01*
X29250Y-30551D01*
X29183Y-30529D01*
X29117Y-30487D01*
X29083Y-30422D01*
X29083Y-30379D01*
X29117Y-30315D01*
X29150Y-30294D01*
X29783Y-29865D02*
X29783Y-30122D01*
X29783Y-29994D02*
X29083Y-29994D01*
X29183Y-30037D01*
X29250Y-30079D01*
X29283Y-30122D01*
X29083Y-29479D02*
X29083Y-29565D01*
X29117Y-29608D01*
X29150Y-29629D01*
X29250Y-29672D01*
X29383Y-29693D01*
X29650Y-29693D01*
X29717Y-29672D01*
X29750Y-29650D01*
X29783Y-29608D01*
X29783Y-29522D01*
X29750Y-29479D01*
X29717Y-29458D01*
X29650Y-29436D01*
X29483Y-29436D01*
X29417Y-29458D01*
X29383Y-29479D01*
X29350Y-29522D01*
X29350Y-29608D01*
X29383Y-29650D01*
X29417Y-29672D01*
X29483Y-29693D01*
X29417Y-29093D02*
X29417Y-29243D01*
X29783Y-29243D02*
X29083Y-29243D01*
X29083Y-29029D01*
X29383Y-28793D02*
X29350Y-28835D01*
X29317Y-28857D01*
X29250Y-28878D01*
X29217Y-28878D01*
X29150Y-28857D01*
X29117Y-28835D01*
X29083Y-28793D01*
X29083Y-28707D01*
X29117Y-28664D01*
X29150Y-28643D01*
X29217Y-28621D01*
X29250Y-28621D01*
X29317Y-28643D01*
X29350Y-28664D01*
X29383Y-28707D01*
X29383Y-28793D01*
X29417Y-28835D01*
X29450Y-28857D01*
X29517Y-28878D01*
X29650Y-28878D01*
X29717Y-28857D01*
X29750Y-28835D01*
X29783Y-28793D01*
X29783Y-28707D01*
X29750Y-28664D01*
X29717Y-28643D01*
X29650Y-28621D01*
X29517Y-28621D01*
X29450Y-28643D01*
X29417Y-28664D01*
X29383Y-28707D01*
X29783Y-28192D02*
X29783Y-28449D01*
X29783Y-28321D02*
X29083Y-28321D01*
X29183Y-28364D01*
X29250Y-28406D01*
X29283Y-28449D01*
X29383Y-27935D02*
X29350Y-27977D01*
X29317Y-27999D01*
X29250Y-28020D01*
X29217Y-28020D01*
X29150Y-27999D01*
X29117Y-27977D01*
X29083Y-27935D01*
X29083Y-27849D01*
X29117Y-27806D01*
X29150Y-27785D01*
X29217Y-27763D01*
X29250Y-27763D01*
X29317Y-27785D01*
X29350Y-27806D01*
X29383Y-27849D01*
X29383Y-27935D01*
X29417Y-27977D01*
X29450Y-27999D01*
X29517Y-28020D01*
X29650Y-28020D01*
X29717Y-27999D01*
X29750Y-27977D01*
X29783Y-27935D01*
X29783Y-27849D01*
X29750Y-27806D01*
X29717Y-27785D01*
X29650Y-27763D01*
X29517Y-27763D01*
X29450Y-27785D01*
X29417Y-27806D01*
X29383Y-27849D01*
G54D15*
X53705Y-17962D02*
X53705Y-17562D01*
X53858Y-17562D01*
X53896Y-17581D01*
X53915Y-17600D01*
X53934Y-17638D01*
X53934Y-17695D01*
X53915Y-17733D01*
X53896Y-17752D01*
X53858Y-17771D01*
X53705Y-17771D01*
X54315Y-17962D02*
X54086Y-17962D01*
X54200Y-17962D02*
X54200Y-17562D01*
X54162Y-17619D01*
X54124Y-17657D01*
X54086Y-17676D01*
X53705Y-20962D02*
X53705Y-20562D01*
X53858Y-20562D01*
X53896Y-20581D01*
X53915Y-20600D01*
X53934Y-20638D01*
X53934Y-20695D01*
X53915Y-20733D01*
X53896Y-20752D01*
X53858Y-20771D01*
X53705Y-20771D01*
X54086Y-20600D02*
X54105Y-20581D01*
X54143Y-20562D01*
X54239Y-20562D01*
X54277Y-20581D01*
X54296Y-20600D01*
X54315Y-20638D01*
X54315Y-20676D01*
X54296Y-20733D01*
X54067Y-20962D01*
X54315Y-20962D01*
X53705Y-25462D02*
X53705Y-25062D01*
X53858Y-25062D01*
X53896Y-25081D01*
X53915Y-25100D01*
X53934Y-25138D01*
X53934Y-25195D01*
X53915Y-25233D01*
X53896Y-25252D01*
X53858Y-25271D01*
X53705Y-25271D01*
X54067Y-25062D02*
X54315Y-25062D01*
X54181Y-25214D01*
X54239Y-25214D01*
X54277Y-25233D01*
X54296Y-25252D01*
X54315Y-25290D01*
X54315Y-25386D01*
X54296Y-25424D01*
X54277Y-25443D01*
X54239Y-25462D01*
X54124Y-25462D01*
X54086Y-25443D01*
X54067Y-25424D01*
X53705Y-28462D02*
X53705Y-28062D01*
X53858Y-28062D01*
X53896Y-28081D01*
X53915Y-28100D01*
X53934Y-28138D01*
X53934Y-28195D01*
X53915Y-28233D01*
X53896Y-28252D01*
X53858Y-28271D01*
X53705Y-28271D01*
X54277Y-28195D02*
X54277Y-28462D01*
X54181Y-28043D02*
X54086Y-28329D01*
X54334Y-28329D01*
X53705Y-33962D02*
X53705Y-33562D01*
X53858Y-33562D01*
X53896Y-33581D01*
X53915Y-33600D01*
X53934Y-33638D01*
X53934Y-33695D01*
X53915Y-33733D01*
X53896Y-33752D01*
X53858Y-33771D01*
X53705Y-33771D01*
X54296Y-33562D02*
X54105Y-33562D01*
X54086Y-33752D01*
X54105Y-33733D01*
X54143Y-33714D01*
X54239Y-33714D01*
X54277Y-33733D01*
X54296Y-33752D01*
X54315Y-33790D01*
X54315Y-33886D01*
X54296Y-33924D01*
X54277Y-33943D01*
X54239Y-33962D01*
X54143Y-33962D01*
X54105Y-33943D01*
X54086Y-33924D01*
X53705Y-37462D02*
X53705Y-37062D01*
X53858Y-37062D01*
X53896Y-37081D01*
X53915Y-37100D01*
X53934Y-37138D01*
X53934Y-37195D01*
X53915Y-37233D01*
X53896Y-37252D01*
X53858Y-37271D01*
X53705Y-37271D01*
X54277Y-37062D02*
X54200Y-37062D01*
X54162Y-37081D01*
X54143Y-37100D01*
X54105Y-37157D01*
X54086Y-37233D01*
X54086Y-37386D01*
X54105Y-37424D01*
X54124Y-37443D01*
X54162Y-37462D01*
X54239Y-37462D01*
X54277Y-37443D01*
X54296Y-37424D01*
X54315Y-37386D01*
X54315Y-37290D01*
X54296Y-37252D01*
X54277Y-37233D01*
X54239Y-37214D01*
X54162Y-37214D01*
X54124Y-37233D01*
X54105Y-37252D01*
X54086Y-37290D01*
G54D10*
X34532Y-26455D02*
X34982Y-26121D01*
X34532Y-26121D02*
X34982Y-26455D01*
X34982Y-25669D02*
X34982Y-25955D01*
X34982Y-25812D02*
X34532Y-25812D01*
X34596Y-25860D01*
X34639Y-25907D01*
X34661Y-25955D01*
X37139Y-27155D02*
X37161Y-27179D01*
X37182Y-27250D01*
X37182Y-27298D01*
X37161Y-27370D01*
X37118Y-27417D01*
X37075Y-27441D01*
X36989Y-27465D01*
X36925Y-27465D01*
X36839Y-27441D01*
X36796Y-27417D01*
X36754Y-27370D01*
X36732Y-27298D01*
X36732Y-27250D01*
X36754Y-27179D01*
X36775Y-27155D01*
X37182Y-26655D02*
X36968Y-26822D01*
X37182Y-26941D02*
X36732Y-26941D01*
X36732Y-26750D01*
X36754Y-26703D01*
X36775Y-26679D01*
X36818Y-26655D01*
X36882Y-26655D01*
X36925Y-26679D01*
X36946Y-26703D01*
X36968Y-26750D01*
X36968Y-26941D01*
X36968Y-26346D02*
X37182Y-26346D01*
X36732Y-26512D02*
X36968Y-26346D01*
X36732Y-26179D01*
X37161Y-26036D02*
X37182Y-25964D01*
X37182Y-25845D01*
X37161Y-25798D01*
X37139Y-25774D01*
X37096Y-25750D01*
X37054Y-25750D01*
X37011Y-25774D01*
X36989Y-25798D01*
X36968Y-25845D01*
X36946Y-25941D01*
X36925Y-25988D01*
X36904Y-26012D01*
X36861Y-26036D01*
X36818Y-26036D01*
X36775Y-26012D01*
X36754Y-25988D01*
X36732Y-25941D01*
X36732Y-25821D01*
X36754Y-25750D01*
X36732Y-25607D02*
X36732Y-25322D01*
X37182Y-25465D02*
X36732Y-25465D01*
X37054Y-25179D02*
X37054Y-24941D01*
X37182Y-25226D02*
X36732Y-25060D01*
X37182Y-24893D01*
X37182Y-24488D02*
X37182Y-24726D01*
X36732Y-24726D01*
G54D12*
X32724Y-24466D02*
X32743Y-24485D01*
X32762Y-24542D01*
X32762Y-24580D01*
X32743Y-24638D01*
X32705Y-24676D01*
X32667Y-24695D01*
X32590Y-24714D01*
X32533Y-24714D01*
X32457Y-24695D01*
X32419Y-24676D01*
X32381Y-24638D01*
X32362Y-24580D01*
X32362Y-24542D01*
X32381Y-24485D01*
X32400Y-24466D01*
X32762Y-24085D02*
X32762Y-24314D01*
X32762Y-24200D02*
X32362Y-24200D01*
X32419Y-24238D01*
X32457Y-24276D01*
X32476Y-24314D01*
X34524Y-27666D02*
X34543Y-27685D01*
X34562Y-27742D01*
X34562Y-27780D01*
X34543Y-27838D01*
X34505Y-27876D01*
X34467Y-27895D01*
X34390Y-27914D01*
X34333Y-27914D01*
X34257Y-27895D01*
X34219Y-27876D01*
X34181Y-27838D01*
X34162Y-27780D01*
X34162Y-27742D01*
X34181Y-27685D01*
X34200Y-27666D01*
X34200Y-27514D02*
X34181Y-27495D01*
X34162Y-27457D01*
X34162Y-27361D01*
X34181Y-27323D01*
X34200Y-27304D01*
X34238Y-27285D01*
X34276Y-27285D01*
X34333Y-27304D01*
X34562Y-27533D01*
X34562Y-27285D01*
M02*
